# xmcd CD database file
#
# Track frame offsets:
#	150
#	11936
#	29290
#	44036
#	57942
#	68730
#	84026
#	102327
#	119062
#	129728
#	144745
#	160175
#	174983
#	187025
#
# Disc length: 2683 seconds
#
# Revision: 1
# Processed by: cddbd v1.5.2PL0 Copyright (c) Steve Scherf et al.
# Submitted via: CDex 1.51
#
DISCID=c80a790e
DTITLE=Plum Jam - "moji znami"
DYEAR=2011
DGENRE=Blues
TTITLE0=Dusna
TTITLE1=Znameni Byka
TTITLE2=Jarni sonet pro kratkozrakou krasku
TTITLE3=Doklady
TTITLE4=Revizorka
TTITLE5=Moji znami
TTITLE6=Konfident Pane
TTITLE7=O samotì s tebou
TTITLE8=Reknete to mymu psovi
TTITLE9=Bacil jsem mouchu
TTITLE10=Cesti utopenci
TTITLE11=Zima
TTITLE12=Blues pro sireny
TTITLE13=Periferie
EXTD=YEAR: 2011
EXTT0=
EXTT1=
EXTT2=
EXTT3=
EXTT4=
EXTT5=
EXTT6=
EXTT7=
EXTT8=
EXTT9=
EXTT10=
EXTT11=
EXTT12=
EXTT13=
PLAYORDER=
